HIERARCHY
ROOT Hips
{
	OFFSET 0.00000 0.00000 0.00000
	CHANNELS 6 Xposition Yposition Zposition Zrotation Yrotation Xrotation 
	JOINT RightUpLegDummy
	{
		OFFSET 0 0 0
		CHANNELS 3 Zrotation Yrotation Xrotation
		JOINT RightUpLeg
		{
			OFFSET -3.52197 -3.41223 0.04002
			CHANNELS 3 Zrotation Yrotation Xrotation
			JOINT RightLeg
			{
				OFFSET 0.00006 -17.42390 1.60435
				CHANNELS 3 Zrotation Yrotation Xrotation
				JOINT RightFoot
				{
					OFFSET 0.06154 -16.50078 -1.63900
					CHANNELS 3 Zrotation Yrotation Xrotation
					JOINT RightToes
					{
						OFFSET 0.00298 -1.73825 3.34613
						CHANNELS 3 Zrotation Yrotation Xrotation
						End Site
						{
							OFFSET 0.00480 -0.05416 3.85043
						}
					}
				}
			}
		}
	}
	JOINT SpineDummy
	{
		OFFSET 0 0 0
		CHANNELS 3 Zrotation Yrotation Xrotation
		JOINT Spine
		{
			OFFSET 0.00000 4.68130 0.00000
			CHANNELS 3 Zrotation Yrotation Xrotation
			JOINT Spine1
			{
				OFFSET -0.00000 10.10138 0.05002
				CHANNELS 3 Zrotation Yrotation Xrotation
				JOINT HEadDummy
				{
					OFFSET 0 0 0
					CHANNELS 3 Zrotation Yrotation Xrotation
					JOINT Head
					{
						OFFSET -0.00000 3.43865 0.00438
						CHANNELS 3 Zrotation Yrotation Xrotation
						End Site
						{
							OFFSET -0.11417 5.02924 0.98962
						}
					}
				}
				JOINT LeftShoulder1Dummy
				{
					OFFSET 0 0 0
					CHANNELS 3 Zrotation Yrotation Xrotation
					JOINT LeftShoulder1
					{
						OFFSET 3.53937 -0.14262 -0.08662
						CHANNELS 3 Zrotation Yrotation Xrotation
						JOINT LeftArm
						{
							OFFSET 4.04833 -0.00133 0.12681
							CHANNELS 3 Zrotation Yrotation Xrotation
							JOINT LeftForeArm
							{
								OFFSET 10.33880 -0.01036 -0.55515
								CHANNELS 3 Zrotation Yrotation Xrotation
								JOINT LeftHand
								{
									OFFSET 8.69677 0.07543 0.40060
									CHANNELS 3 Zrotation Yrotation Xrotation
									End Site
									{
										OFFSET 5.28377 -0.21905 0.59205
									}
								}
							}
						}
					}
				}
				JOINT RightShoulderDummy
				{
					OFFSET 0 0 0
					CHANNELS 3 Zrotation Yrotation Xrotation
					JOINT RightShoulder
					{
						OFFSET -3.53937 -0.14262 -0.08660
						CHANNELS 3 Zrotation Yrotation Xrotation
						JOINT RightArm
						{
							OFFSET -4.04833 -0.00133 0.12683
							CHANNELS 3 Zrotation Yrotation Xrotation
							JOINT RightForeArm
							{
								OFFSET -10.37987 -0.01039 -0.55511
								CHANNELS 3 Zrotation Yrotation Xrotation
								JOINT RightHand
								{
									OFFSET -8.67398 0.07538 0.40058
									CHANNELS 3 Zrotation Yrotation Xrotation
									End Site
									{
										OFFSET -5.24810 -0.21916 0.59204
									}
								}
							}
						}
					}
				}
			}
		}
	}
	JOINT LeftUpLegDummy
	{
		OFFSET 0 0 0
		CHANNELS 3 Zrotation Yrotation Xrotation
		JOINT LeftUpLeg
		{
			OFFSET 3.52197 -3.41223 0.04002
			CHANNELS 3 Zrotation Yrotation Xrotation
			JOINT LeftLeg
			{
				OFFSET -0.00012 -17.42399 1.60337
				CHANNELS 3 Zrotation Yrotation Xrotation
				JOINT LeftFoot
				{
					OFFSET -0.09972 -16.50070 -1.63802
					CHANNELS 3 Zrotation Yrotation Xrotation
					JOINT LeftToes
					{
						OFFSET -0.01575 -1.73823 3.34611
						CHANNELS 3 Zrotation Yrotation Xrotation
						End Site
						{
							OFFSET 0.03150 -0.01868 3.85031
						}
					}
				}
			}
		}
	}
}
MOTION
Frames: 16
Frame Time: 0.033333
62.7812 38.7366 8.4887 -179.6460 65.0801 176.8090 0.0000 0.0000 0.0000 0.7559 -5.9971 0.9679 -3.8511 -13.4515 13.2982 4.3871 -0.1009 -9.6648 0.0000 0.0000 -0.0000 0.0000 0.0000 0.0000 6.1831 -1.6694 -14.6502 7.7434 -5.2964 25.2309 0.0000 0.0000 0.0000 -3.2040 -9.6603 -5.7297 0.0000 0.0000 0.0000 -19.4794 -3.0990 1.7149 -61.8231 -10.6915 -19.5693 -10.9965 5.0712 49.8027 13.8977 -3.3098 -1.0158 0.0000 0.0000 0.0000 16.8679 3.4164 1.6300 27.6804 -21.3092 64.8755 173.9132 67.2182 69.2323 -42.9968 3.3088 -3.3481 0.0000 0.0000 0.0000 3.3178 20.2548 -10.7066 3.1776 16.3185 11.4863 0.7240 -0.1170 3.6906 0.0000 0.0000 0.0000
62.8165 38.7404 8.5170 -179.9530 65.0203 176.5210 0.0000 0.0000 0.0000 0.6828 -6.0439 0.9993 -3.8788 -13.4648 13.3380 4.3462 -0.0984 -9.7169 0.0000 0.0000 -0.0000 0.0000 0.0000 0.0000 5.9069 -1.8607 -14.9360 7.8372 -5.5082 25.1705 0.0000 0.0000 0.0000 -3.5744 -9.3319 -5.3033 0.0000 0.0000 0.0000 -19.7012 -3.1250 1.7354 -61.4667 -12.0457 -19.5691 -10.8704 5.1154 48.3586 13.5571 -2.8832 -0.9431 0.0000 0.0000 0.0000 16.7449 3.3468 1.6059 27.7999 -21.0880 64.7404 174.1376 67.0789 66.0370 -40.8076 0.9658 -2.3077 0.0000 0.0000 0.0000 3.3378 19.7530 -10.5544 3.1759 16.7596 11.3184 0.6918 -0.1146 3.8228 0.0000 0.0000 0.0000
62.8380 38.7392 8.5514 179.9840 64.9397 176.6070 0.0000 0.0000 0.0000 0.7477 -6.0027 0.8348 -3.9303 -13.5970 13.3926 4.2765 -0.0960 -9.7378 0.0000 0.0000 -0.0000 0.0000 0.0000 0.0000 5.7850 -2.0405 -15.3309 7.8867 -5.7247 25.1424 0.0000 0.0000 0.0000 -4.1201 -8.9823 -4.8702 0.0000 0.0000 0.0000 -19.7547 -3.2447 1.7700 -61.2381 -13.5830 -19.0552 -10.9915 5.1553 47.1001 13.4216 -2.7512 -0.9190 0.0000 0.0000 0.0000 16.6307 3.3894 1.6086 27.9623 -21.0231 64.6518 174.2526 67.0814 64.2289 -40.4198 0.0190 -1.9488 0.0000 0.0000 0.0000 3.3198 19.5928 -10.7021 3.1903 16.8297 11.2766 0.6323 -0.1118 3.8945 0.0000 0.0000 0.0000
62.8495 38.7404 8.5858 179.9700 64.9806 176.6890 0.0000 0.0000 0.0000 0.8073 -5.9738 0.7509 -3.8947 -13.6270 13.3248 4.1863 -0.0954 -9.7216 0.0000 0.0000 -0.0000 0.0000 0.0000 0.0000 5.6772 -2.1398 -15.4096 8.0382 -5.8763 24.9230 0.0000 0.0000 0.0000 -4.5818 -8.8140 -4.5685 0.0000 0.0000 0.0000 -19.8713 -3.3696 1.8102 -60.9525 -15.2310 -18.0046 -11.4054 5.1676 46.1251 13.5961 -3.0932 -0.9690 0.0000 0.0000 0.0000 16.4285 3.4569 1.6114 28.1811 -21.0615 64.7121 174.1166 67.3119 65.4109 -42.0188 1.3871 -2.5460 0.0000 0.0000 0.0000 3.3786 19.5973 -10.7551 3.1192 16.8781 11.1984 0.5889 -0.1109 3.9456 0.0000 0.0000 0.0000
62.8517 38.7452 8.6108 179.8670 65.0473 176.5950 0.0000 0.0000 0.0000 0.7588 -6.0398 0.7827 -3.7700 -13.5364 13.2161 4.0868 -0.0945 -9.7035 0.0000 0.0000 -0.0000 0.0000 0.0000 0.0000 5.5325 -2.2492 -15.1944 8.1996 -6.0171 24.6234 0.0000 0.0000 0.0000 -4.7645 -8.7070 -4.6083 0.0000 0.0000 0.0000 -20.0680 -3.3872 1.8275 -60.6152 -16.9101 -16.4948 -12.0776 4.6292 44.7317 13.8382 -3.3862 -1.0197 0.0000 0.0000 0.0000 16.2841 3.5202 1.6167 28.2760 -20.9638 64.8407 173.9382 67.5154 67.3810 -43.3929 2.8997 -3.2162 0.0000 0.0000 0.0000 3.4698 19.4435 -10.6329 2.9998 17.1311 11.0218 0.5904 -0.1131 4.0403 0.0000 0.0000 0.0000
62.8474 38.7493 8.6231 179.7010 65.0508 176.4590 0.0000 0.0000 0.0000 0.6612 -6.1329 0.7577 -3.6846 -13.4463 13.2010 4.0042 -0.0938 -9.6900 0.0000 0.0000 -0.0000 0.0000 0.0000 0.0000 5.3712 -2.4094 -14.9933 8.3507 -6.2055 24.4177 0.0000 0.0000 0.0000 -4.8914 -8.5987 -4.9988 0.0000 0.0000 0.0000 -20.2337 -3.3597 1.8308 -60.3789 -18.5403 -14.7896 -12.8095 2.6872 42.9462 14.0692 -3.3430 -1.0324 0.0000 0.0000 0.0000 16.1609 3.6225 1.6322 28.3016 -20.7845 64.9234 173.9182 67.5415 67.5942 -43.0741 2.8746 -3.1831 0.0000 0.0000 0.0000 3.4748 19.1396 -10.5536 2.9472 17.4672 10.8497 0.6222 -0.1171 4.1552 0.0000 0.0000 0.0000
62.8432 38.7539 8.6278 179.4960 65.0514 176.3670 0.0000 0.0000 0.0000 0.5870 -6.1673 0.6373 -3.6925 -13.4080 13.2025 3.9655 -0.0948 -9.6386 0.0000 0.0000 -0.0000 0.0000 0.0000 0.0000 5.2777 -2.5500 -14.9541 8.4449 -6.3708 24.3389 0.0000 0.0000 0.0000 -5.0585 -8.4080 -5.3277 0.0000 0.0000 0.0000 -20.2741 -3.4317 1.8526 -60.3301 -20.0401 -12.9469 -13.4329 0.6225 41.0358 14.3485 -3.2873 -1.0473 0.0000 0.0000 0.0000 15.9627 3.7723 1.6532 28.4640 -20.7328 64.9409 173.9153 67.5785 67.4735 -42.8486 2.7601 -3.1216 0.0000 0.0000 0.0000 3.4095 18.7571 -10.5676 2.9555 17.8726 10.6931 0.6687 -0.1215 4.2752 0.0000 0.0000 0.0000
62.8434 38.7641 8.6315 179.2720 65.1031 176.2710 0.0000 0.0000 0.0000 0.5336 -6.1563 0.5608 -3.7134 -13.3985 13.0650 3.9588 -0.0982 -9.5281 0.0000 0.0000 -0.0000 0.0000 0.0000 0.0000 5.2880 -2.6364 -14.9730 8.3855 -6.4434 24.3489 0.0000 0.0000 0.0000 -5.1903 -8.1731 -5.4479 0.0000 0.0000 0.0000 -20.1764 -3.5873 1.8876 -60.4612 -21.4124 -10.1604 -13.8464 -1.7299 38.5713 14.5498 -3.4225 -1.0784 0.0000 0.0000 0.0000 15.8147 3.8875 1.6693 28.7061 -20.7626 64.9437 173.8046 67.7385 68.5871 -43.7273 3.6284 -3.5296 0.0000 0.0000 0.0000 3.4039 18.2279 -10.5159 2.9170 18.4819 10.4551 0.7188 -0.1251 4.4312 0.0000 0.0000 0.0000
62.8470 38.7776 8.6366 179.0930 65.1616 176.1580 0.0000 0.0000 0.0000 0.4847 -6.1497 0.5954 -3.6872 -13.3958 12.8395 3.9473 -0.1012 -9.4080 0.0000 0.0000 -0.0000 0.0000 0.0000 0.0000 5.2634 -2.7350 -14.9192 8.2755 -6.5134 24.4216 0.0000 0.0000 0.0000 -5.1676 -7.9750 -5.6302 0.0000 0.0000 0.0000 -20.0339 -3.6676 1.8994 -60.6921 -22.7330 -5.8800 -13.9884 -4.3839 34.7198 14.5595 -3.4811 -1.0862 0.0000 0.0000 0.0000 15.8590 3.9157 1.6787 28.7811 -20.6527 64.9427 173.7412 67.8451 69.1631 -43.8597 3.9489 -3.6680 0.0000 0.0000 0.0000 3.4970 17.6412 -10.3461 2.7956 19.1579 10.1514 0.7430 -0.1263 4.6034 0.0000 0.0000 0.0000
62.8526 38.7869 8.6409 178.9910 65.1861 176.0620 0.0000 0.0000 0.0000 0.4458 -6.1588 0.6577 -3.6539 -13.3872 12.7113 3.9212 -0.1016 -9.3450 0.0000 0.0000 -0.0000 0.0000 0.0000 0.0000 5.0265 -2.8907 -14.7662 8.3893 -6.7037 24.4876 0.0000 0.0000 0.0000 -5.0323 -7.8343 -6.0112 0.0000 0.0000 0.0000 -19.9834 -3.6387 1.8884 -60.9505 -23.9461 -0.2615 -13.7739 -7.1391 29.3972 14.5239 -3.3225 -1.0646 0.0000 0.0000 0.0000 15.9408 3.9046 1.6817 28.7102 -20.4175 64.8787 173.8292 67.8001 67.8735 -42.3777 2.8083 -3.1024 0.0000 0.0000 0.0000 3.5942 17.2719 -10.1742 2.6616 19.5683 9.9169 0.7136 -0.1236 4.7250 0.0000 0.0000 0.0000
62.8617 38.7889 8.6424 178.9230 65.1780 175.9890 0.0000 0.0000 0.0000 0.4214 -6.1742 0.6773 -3.6601 -13.3873 12.7197 3.9013 -0.1016 -9.3467 0.0000 0.0000 -0.0000 0.0000 0.0000 0.0000 4.6443 -3.0567 -14.5691 8.7424 -6.9709 24.4725 0.0000 0.0000 0.0000 -4.9068 -7.7196 -6.3616 0.0000 0.0000 0.0000 -20.0145 -3.6293 1.8880 -61.2932 -24.8106 5.7994 -13.0781 -9.8333 23.7730 14.5613 -3.2363 -1.0573 0.0000 0.0000 0.0000 15.8372 3.8993 1.6735 28.7774 -20.3030 64.6895 173.8987 67.7667 66.8887 -41.3541 1.8702 -2.6744 0.0000 0.0000 0.0000 3.6183 17.1990 -10.0908 2.5832 19.6343 9.8159 0.6463 -0.1183 4.7877 0.0000 0.0000 0.0000
62.8761 38.7870 8.6410 178.8750 65.1424 175.9500 0.0000 0.0000 0.0000 0.4152 -6.1885 0.6803 -3.6889 -13.4196 12.7537 3.9055 -0.1027 -9.3706 0.0000 0.0000 -0.0000 0.0000 0.0000 0.0000 4.3977 -3.1809 -14.4223 8.9956 -7.1662 24.4316 0.0000 0.0000 0.0000 -4.8557 -7.6704 -6.5616 0.0000 0.0000 0.0000 -19.9549 -3.6702 1.8948 -61.8550 -25.2235 11.1958 -11.8952 -12.3066 19.1659 14.5232 -3.3877 -1.0723 0.0000 0.0000 0.0000 15.6369 3.8781 1.6552 29.0646 -20.4027 64.3870 173.8337 67.8261 67.6817 -41.7524 2.2752 -2.8541 0.0000 0.0000 0.0000 3.5911 17.2619 -10.0855 2.5683 19.5382 9.8065 0.5879 -0.1133 4.8333 0.0000 0.0000 0.0000
62.8966 38.7847 8.6373 178.8670 65.1256 175.9490 0.0000 0.0000 0.0000 0.4237 -6.1927 0.7045 -3.7007 -13.4144 12.7687 3.9335 -0.1050 -9.3941 0.0000 0.0000 -0.0000 0.0000 0.0000 0.0000 4.4164 -3.2568 -14.3840 8.9419 -7.2271 24.4831 0.0000 0.0000 0.0000 -4.7720 -7.6169 -6.6653 0.0000 0.0000 0.0000 -19.7640 -3.6366 1.8733 -62.5403 -25.4223 15.1528 -10.6873 -14.1180 16.0489 14.3402 -3.5113 -1.0727 0.0000 0.0000 0.0000 15.5727 3.8305 1.6402 29.3493 -20.5668 64.0502 173.7650 67.8623 68.6639 -42.0716 2.7330 -3.0484 0.0000 0.0000 0.0000 3.5635 17.3946 -10.1030 2.5979 19.4087 9.8528 0.5607 -0.1099 4.8604 0.0000 0.0000 0.0000
62.9247 38.7824 8.6306 178.8540 65.2162 175.9250 0.0000 0.0000 0.0000 0.4191 -6.1898 0.7381 -3.6832 -13.2489 12.8232 3.9699 -0.1076 -9.4365 0.0000 0.0000 -0.0000 0.0000 0.0000 0.0000 4.5462 -3.2780 -14.4084 8.7732 -7.2000 24.6102 0.0000 0.0000 0.0000 -4.7051 -7.4981 -6.7375 0.0000 0.0000 0.0000 -19.6294 -3.4959 1.8276 -63.0060 -25.6675 17.3587 -10.2149 -14.8007 14.4575 14.2744 -3.4282 -1.0579 0.0000 0.0000 0.0000 15.6571 3.7894 1.6367 29.4573 -20.6700 63.7727 173.7906 67.8332 68.3617 -41.6140 2.3045 -2.8542 0.0000 0.0000 0.0000 3.5359 17.6810 -10.1007 2.6644 19.2461 9.9587 0.5414 -0.1062 4.8312 0.0000 0.0000 0.0000
62.9595 38.7785 8.6203 178.7870 65.4145 175.8470 0.0000 0.0000 0.0000 0.3894 -6.1945 0.7538 -3.6535 -12.9634 12.9263 3.9838 -0.1084 -9.5096 0.0000 0.0000 -0.0000 0.0000 0.0000 0.0000 4.6428 -3.2379 -14.4221 8.6998 -7.1342 24.6977 0.0000 0.0000 0.0000 -4.8018 -7.3743 -6.7546 0.0000 0.0000 0.0000 -19.6489 -3.3820 1.7992 -63.1356 -25.8833 17.8517 -10.6684 -14.3907 14.5386 14.5111 -3.3786 -1.0704 0.0000 0.0000 0.0000 15.7602 3.7591 1.6367 29.4135 -20.7308 63.6364 173.8327 67.8285 67.6746 -41.4627 1.7817 -2.6507 0.0000 0.0000 0.0000 3.4797 18.1146 -10.0965 2.7730 19.0347 10.1264 0.5039 -0.1002 4.7459 0.0000 0.0000 0.0000
62.9944 38.7730 8.6085 178.7400 65.6058 175.8180 0.0000 0.0000 0.0000 0.3794 -6.1975 0.7462 -3.6336 -12.7638 12.9943 3.9480 -0.1060 -9.5786 0.0000 0.0000 -0.0000 0.0000 0.0000 0.0000 4.7620 -3.1691 -14.4391 8.6554 -7.0516 24.7326 0.0000 0.0000 0.0000 -4.9553 -7.4057 -6.7299 0.0000 0.0000 0.0000 -19.7015 -3.3749 1.8007 -63.1796 -25.8357 16.5242 -11.5637 -13.2729 16.6121 14.7901 -3.5720 -1.1149 0.0000 0.0000 0.0000 15.8547 3.7094 1.6318 29.2654 -20.7790 63.6824 173.8580 67.8197 67.3097 -41.6347 1.4644 -2.5461 0.0000 0.0000 0.0000 3.4064 18.5475 -10.1540 2.9149 18.7912 10.3352 0.4605 -0.0933 4.6457 0.0000 0.0000 0.0000
